<mxfile host="65bd71144e">
    <diagram id="JiPeBnl8MNzj9gC05diy" name="Page-1">
        <mxGraphModel dx="-4083" dy="1994" grid="1" gridSize="10" guides="1" tooltips="1" connect="1" arrows="1" fold="1" page="1" pageScale="1" pageWidth="827" pageHeight="1169" math="0" shadow="0">
            <root>
                <mxCell id="0"/>
                <mxCell id="1" parent="0"/>
                <mxCell id="262" value="" style="endArrow=none;html=1;strokeWidth=10;entryX=0;entryY=0.5;entryDx=0;entryDy=0;" edge="1" parent="1" target="264">
                    <mxGeometry width="50" height="50" relative="1" as="geometry">
                        <mxPoint x="6000" y="100" as="sourcePoint"/>
                        <mxPoint x="6190" y="100" as="targetPoint"/>
                    </mxGeometry>
                </mxCell>
                <mxCell id="263" value="" style="endArrow=none;html=1;strokeWidth=10;exitX=1;exitY=0.5;exitDx=0;exitDy=0;" edge="1" parent="1" source="264">
                    <mxGeometry width="50" height="50" relative="1" as="geometry">
                        <mxPoint x="6320" y="100" as="sourcePoint"/>
                        <mxPoint x="6500" y="100" as="targetPoint"/>
                    </mxGeometry>
                </mxCell>
                <mxCell id="264" value="&lt;span style=&quot;font-size: 32px;&quot;&gt;.s2p&lt;/span&gt;" style="rounded=0;whiteSpace=wrap;html=1;glass=0;strokeColor=#000000;fillColor=none;strokeWidth=10;" vertex="1" parent="1">
                    <mxGeometry x="6160" y="70" width="180" height="60" as="geometry"/>
                </mxCell>
                <mxCell id="265" value="" style="endArrow=none;html=1;strokeWidth=4;curved=1;startArrow=open;startFill=0;" edge="1" parent="1">
                    <mxGeometry width="50" height="50" relative="1" as="geometry">
                        <mxPoint x="6073" y="160" as="sourcePoint"/>
                        <mxPoint x="6073" y="120" as="targetPoint"/>
                        <Array as="points">
                            <mxPoint x="6203" y="140"/>
                        </Array>
                    </mxGeometry>
                </mxCell>
                <mxCell id="266" value="S11" style="text;strokeColor=none;align=center;fillColor=none;html=1;verticalAlign=middle;whiteSpace=wrap;rounded=0;" vertex="1" parent="1">
                    <mxGeometry x="6060" y="120" width="60" height="30" as="geometry"/>
                </mxCell>
                <mxCell id="267" value="" style="edgeStyle=none;orthogonalLoop=1;jettySize=auto;html=1;curved=1;endArrow=open;endFill=0;strokeWidth=4;" edge="1" parent="1">
                    <mxGeometry width="80" relative="1" as="geometry">
                        <mxPoint x="6170" y="50" as="sourcePoint"/>
                        <mxPoint x="6330" y="50" as="targetPoint"/>
                        <Array as="points"/>
                    </mxGeometry>
                </mxCell>
                <mxCell id="268" value="S21" style="text;strokeColor=none;align=center;fillColor=none;html=1;verticalAlign=middle;whiteSpace=wrap;rounded=0;" vertex="1" parent="1">
                    <mxGeometry x="6220" y="20" width="60" height="30" as="geometry"/>
                </mxCell>
                <mxCell id="269" value="" style="edgeStyle=none;orthogonalLoop=1;jettySize=auto;html=1;curved=1;endArrow=open;endFill=0;strokeWidth=4;" edge="1" parent="1">
                    <mxGeometry width="80" relative="1" as="geometry">
                        <mxPoint x="6330" y="150" as="sourcePoint"/>
                        <mxPoint x="6180" y="150" as="targetPoint"/>
                        <Array as="points"/>
                    </mxGeometry>
                </mxCell>
                <mxCell id="270" value="S12" style="text;strokeColor=none;align=center;fillColor=none;html=1;verticalAlign=middle;whiteSpace=wrap;rounded=0;" vertex="1" parent="1">
                    <mxGeometry x="6220" y="150" width="60" height="30" as="geometry"/>
                </mxCell>
                <mxCell id="271" value="" style="endArrow=none;html=1;strokeWidth=4;curved=1;startArrow=open;startFill=0;" edge="1" parent="1">
                    <mxGeometry width="50" height="50" relative="1" as="geometry">
                        <mxPoint x="6430" y="160" as="sourcePoint"/>
                        <mxPoint x="6430" y="120" as="targetPoint"/>
                        <Array as="points">
                            <mxPoint x="6300" y="140"/>
                        </Array>
                    </mxGeometry>
                </mxCell>
                <mxCell id="272" value="S22" style="text;strokeColor=none;align=center;fillColor=none;html=1;verticalAlign=middle;whiteSpace=wrap;rounded=0;" vertex="1" parent="1">
                    <mxGeometry x="6390" y="120" width="60" height="30" as="geometry"/>
                </mxCell>
                <mxCell id="273" value="" style="rounded=0;whiteSpace=wrap;html=1;fillColor=none;strokeWidth=2;" vertex="1" parent="1">
                    <mxGeometry x="6000" width="500" height="300" as="geometry"/>
                </mxCell>
            </root>
        </mxGraphModel>
    </diagram>
</mxfile>